<?xml version="1.0" standalone="no"?>
<!DOCTYPE svg PUBLIC "-//W3C//DTD SVG 20010904//EN"
 "http://www.w3.org/TR/2001/REC-SVG-20010904/DTD/svg10.dtd">
<svg version="1.0" xmlns="http://www.w3.org/2000/svg"
 width="1288.000000pt" height="172.000000pt" viewBox="0 0 1288.000000 172.000000"
 preserveAspectRatio="xMidYMid meet">

<g transform="translate(0.000000,172.000000) scale(0.100000,-0.100000)"
fill="#000000" stroke="none">
<path d="M1053 1615 c-120 -33 -205 -101 -255 -203 -31 -63 -33 -72 -33 -177
0 -100 2 -115 28 -167 95 -193 352 -264 566 -157 179 89 253 337 157 522 -38
74 -127 147 -209 172 -75 24 -191 28 -254 10z m247 -63 c108 -55 155 -156 148
-322 -3 -85 -8 -105 -36 -163 -55 -112 -141 -167 -259 -167 -88 0 -154 30
-211 95 -53 60 -76 132 -75 240 0 141 45 244 132 303 87 59 201 65 301 14z"/>
<path d="M5483 1615 c-120 -33 -205 -101 -255 -203 -31 -63 -33 -72 -33 -177
0 -100 2 -115 28 -167 95 -193 352 -264 566 -157 179 89 253 337 157 522 -38
74 -127 147 -209 172 -75 24 -191 28 -254 10z m247 -63 c108 -55 155 -156 148
-322 -3 -85 -8 -105 -36 -163 -55 -112 -141 -167 -259 -167 -88 0 -154 30
-211 95 -53 60 -76 132 -75 240 0 141 45 244 132 303 87 59 201 65 301 14z"/>
<path d="M8143 1615 c-120 -33 -205 -101 -255 -203 -31 -63 -33 -72 -33 -177
0 -100 2 -115 28 -167 95 -193 352 -264 566 -157 179 89 253 337 157 522 -38
74 -127 147 -209 172 -75 24 -191 28 -254 10z m247 -63 c108 -55 155 -156 148
-322 -3 -85 -8 -105 -36 -163 -55 -112 -141 -167 -259 -167 -88 0 -154 30
-211 95 -53 60 -76 132 -75 240 0 141 45 244 132 303 87 59 201 65 301 14z"/>
<path d="M9863 1615 c-120 -33 -205 -101 -255 -203 -31 -63 -33 -72 -33 -177
0 -100 2 -115 28 -167 95 -193 352 -264 566 -157 179 89 253 337 157 522 -38
74 -127 147 -209 172 -75 24 -191 28 -254 10z m247 -63 c108 -55 155 -156 148
-322 -3 -85 -8 -105 -36 -163 -55 -112 -141 -167 -259 -167 -88 0 -154 30
-211 95 -53 60 -76 132 -75 240 0 141 45 244 132 303 87 59 201 65 301 14z"/>
<path d="M299 1597 c-121 -42 -188 -104 -229 -213 -54 -146 -23 -321 75 -419
105 -104 321 -134 463 -63 40 19 47 28 50 55 l3 32 -56 -33 c-120 -73 -261
-65 -355 20 -67 60 -92 122 -98 235 -10 214 88 352 262 366 74 6 117 -6 186
-52 27 -18 52 -30 54 -27 2 4 7 23 11 43 l7 35 -54 18 c-31 11 -94 20 -153 22
-86 4 -109 1 -166 -19z"/>
<path d="M3530 1605 c-163 -46 -254 -144 -281 -302 -29 -176 46 -332 192 -398
118 -52 285 -56 437 -10 l52 16 0 149 0 150 -45 0 -44 0 -3 -137 -3 -138 -40
-13 c-22 -7 -80 -13 -130 -13 -81 0 -95 2 -154 33 -113 58 -156 145 -156 313
0 89 3 106 28 157 51 105 155 168 276 168 72 0 129 -19 192 -65 27 -19 51 -35
53 -35 3 0 10 16 17 37 10 32 10 38 -7 50 -60 44 -283 66 -384 38z"/>
<path d="M1700 1245 l0 -365 193 0 192 0 0 30 0 29 -149 -6 -148 -6 4 341 4
342 -48 0 -48 0 0 -365z"/>
<path d="M2230 1245 l0 -365 193 0 192 0 0 30 0 29 -149 -6 -148 -6 4 341 4
342 -48 0 -48 0 0 -365z"/>
<path d="M2760 1245 l0 -365 190 0 190 0 0 29 0 30 -145 -6 -145 -6 0 158 0
157 130 -4 130 -4 0 31 0 30 -130 -4 -130 -3 0 105 c0 57 3 118 6 135 l6 31
133 -6 132 -6 5 32 5 31 -189 0 -188 0 0 -365z"/>
<path d="M4120 1245 l0 -365 190 0 190 0 0 29 0 30 -145 -6 -145 -6 0 158 0
157 130 -4 130 -4 0 31 0 30 -130 -4 -130 -3 0 105 c0 57 3 118 6 135 l6 31
133 -6 132 -6 5 32 5 31 -189 0 -188 0 0 -365z"/>
<path d="M4654 1245 l1 -365 48 0 47 0 0 164 0 164 93 4 c189 9 290 98 273
242 -14 123 -85 156 -331 156 l-132 0 1 -365z m306 300 c59 -30 77 -128 38
-205 -30 -57 -75 -80 -173 -87 l-75 -6 0 156 c0 139 2 156 18 161 30 9 164 -4
192 -19z"/>
<path d="M6134 1245 l-2 -365 49 0 49 0 0 175 c0 166 1 175 19 175 21 0 72
-58 206 -234 l88 -116 59 0 c55 0 58 1 46 18 -7 10 -67 85 -132 167 -65 83
-123 155 -128 162 -6 8 6 16 41 28 63 20 126 66 146 104 19 37 20 123 1 159
-39 76 -90 91 -296 92 l-145 0 -1 -365z m273 314 c102 -38 123 -163 38 -238
-38 -33 -80 -45 -165 -45 -54 -1 -55 0 -54 27 0 15 1 81 2 147 l2 120 74 0
c41 0 87 -5 103 -11z"/>
<path d="M6703 1593 c-3 -6 -3 -20 -1 -29 3 -16 16 -17 122 -15 l119 3 -7
-336 -7 -336 50 0 50 0 -6 198 c-3 108 -2 259 2 336 l7 138 109 -4 109 -4 0
30 0 31 -271 0 c-201 0 -273 -3 -276 -12z"/>
<path d="M7370 1245 l0 -365 45 0 45 0 0 181 0 181 130 -4 130 -4 0 31 0 30
-130 -4 -130 -3 0 105 c0 57 3 118 6 135 l6 31 133 -6 132 -6 5 32 5 31 -189
0 -188 0 0 -365z"/>
<path d="M8790 1245 l0 -365 193 0 192 0 0 30 0 29 -149 -6 -148 -6 4 341 4
342 -48 0 -48 0 0 -365z"/>
<path d="M9330 1394 c0 -116 -3 -279 -7 -362 l-6 -152 52 0 52 0 -3 218 c-2
119 -1 282 1 361 l4 143 -46 2 -47 2 0 -212z"/>
<path d="M11215 1265 l-540 -194 35 -14 c19 -8 263 -94 542 -192 l508 -178
418 147 c229 80 421 146 425 146 4 0 7 -98 7 -218 0 -199 2 -220 18 -235 24
-22 45 -21 65 1 14 16 17 52 19 257 l3 239 63 20 c34 11 62 22 62 25 0 5
-1023 373 -1075 387 -5 2 -253 -84 -550 -191z"/>
<path d="M11060 674 c0 -183 7 -205 80 -259 277 -203 963 -203 1240 0 74 54
81 77 78 258 l-3 153 -347 -123 -348 -123 -322 114 c-178 63 -335 119 -350
125 l-28 11 0 -156z"/>
<path d="M6175 596 c-15 -15 -25 -36 -25 -54 0 -21 -6 -31 -20 -35 -25 -6 -29
-67 -5 -67 12 0 15 -19 15 -110 l0 -110 40 0 40 0 0 110 0 110 25 0 c22 0 25
4 25 35 0 31 -3 35 -26 35 -34 0 -29 32 6 40 20 5 25 12 25 35 0 27 -3 30 -37
33 -29 3 -43 -2 -63 -22z"/>
<path d="M6355 596 c-15 -15 -25 -36 -25 -54 0 -21 -6 -31 -20 -35 -25 -6 -29
-67 -5 -67 12 0 15 -19 15 -110 l0 -110 40 0 40 0 0 110 0 110 25 0 c22 0 25
4 25 35 0 31 -3 35 -26 35 -34 0 -29 32 6 40 20 5 25 12 25 35 0 27 -3 30 -37
33 -29 3 -43 -2 -63 -22z"/>
<path d="M2290 415 l0 -195 35 0 35 0 1 148 1 147 27 -120 c44 -193 37 -177
74 -173 l32 3 36 150 37 150 1 -152 1 -153 40 0 40 0 0 195 0 195 -60 0 -59 0
-10 -37 c-5 -21 -17 -67 -26 -103 -9 -36 -20 -71 -24 -78 -4 -7 -18 38 -32
100 l-25 113 -62 3 -62 3 0 -196z"/>
<path d="M2997 603 c-4 -3 -7 -91 -7 -195 l0 -188 40 0 40 0 0 48 c0 43 12 72
30 72 4 0 15 -27 25 -60 l18 -60 43 0 44 0 -19 48 c-11 26 -28 68 -39 94 l-21
47 35 43 c18 24 34 46 34 51 0 9 -52 9 -66 -1 -5 -4 -26 -29 -45 -56 l-34 -48
-3 106 -3 106 -33 0 c-18 0 -36 -3 -39 -7z"/>
<path d="M3260 570 l0 -40 40 0 40 0 0 40 0 40 -40 0 -40 0 0 -40z"/>
<path d="M4150 603 c-30 -11 -70 -57 -81 -92 -7 -20 -12 -68 -12 -107 1 -141
81 -219 188 -184 42 14 85 71 85 113 0 26 -2 28 -37 25 -30 -2 -39 -8 -41 -24
-8 -53 -69 -68 -93 -23 -16 32 -13 177 6 205 30 46 85 23 85 -35 0 -18 6 -21
40 -21 34 0 40 3 40 20 0 30 -24 82 -49 104 -21 19 -102 31 -131 19z"/>
<path d="M4657 603 c-4 -3 -7 -91 -7 -195 l0 -188 40 0 40 0 0 195 0 195 -33
0 c-19 0 -37 -3 -40 -7z"/>
<path d="M4797 603 c-4 -3 -7 -91 -7 -195 l0 -188 40 0 40 0 0 195 0 195 -33
0 c-19 0 -37 -3 -40 -7z"/>
<path d="M5905 598 c-3 -7 -29 -94 -59 -193 l-54 -180 35 -3 c42 -4 43 -3 52
40 7 32 8 33 63 36 l56 3 7 -41 c7 -40 7 -40 51 -40 24 0 44 3 44 8 0 4 -25
90 -54 192 l-53 185 -42 3 c-27 2 -43 -1 -46 -10z m68 -200 c7 -27 6 -28 -28
-28 -39 0 -40 2 -24 68 20 89 20 89 52 -40z"/>
<path d="M7087 603 c-4 -3 -7 -30 -7 -59 l0 -52 -30 11 c-64 24 -120 -42 -120
-143 0 -103 57 -168 120 -136 17 8 30 10 30 5 0 -5 18 -9 40 -9 l40 0 0 195 0
195 -33 0 c-19 0 -37 -3 -40 -7z m-12 -176 c12 -46 1 -139 -17 -151 -13 -8
-21 -7 -29 1 -17 17 -23 112 -10 146 13 34 48 37 56 4z"/>
<path d="M7507 603 c-4 -3 -7 -91 -7 -195 l0 -188 25 0 c14 0 28 7 31 15 5 12
11 11 34 -7 37 -27 83 -16 114 25 31 42 35 160 7 205 -30 47 -65 61 -102 40
l-29 -17 0 64 0 65 -33 0 c-19 0 -37 -3 -40 -7z m133 -179 c23 -60 5 -154 -29
-154 -25 0 -31 19 -31 90 0 32 3 65 6 74 10 25 43 19 54 -10z"/>
<path d="M7787 603 c-4 -3 -7 -91 -7 -195 l0 -188 40 0 40 0 0 195 0 195 -33
0 c-19 0 -37 -3 -40 -7z"/>
<path d="M3859 528 c-9 -20 -17 -23 -70 -23 -54 0 -63 -3 -85 -28 -29 -34 -31
-80 -5 -106 17 -17 18 -21 5 -32 -31 -25 -36 -49 -18 -76 16 -25 16 -27 -1
-39 -22 -16 -23 -61 -1 -82 13 -13 36 -17 102 -17 82 0 87 1 110 28 31 36 31
81 1 111 -18 18 -40 25 -91 30 -55 6 -67 11 -64 24 3 11 12 16 27 14 83 -9
145 50 122 115 -13 35 -8 53 15 53 8 0 14 10 14 25 0 20 -5 25 -25 25 -17 0
-29 -8 -36 -22z m-51 -106 c3 -37 1 -42 -17 -42 -26 0 -37 39 -21 70 17 32 35
19 38 -28z m35 -211 c20 -20 -1 -41 -42 -41 -66 0 -88 18 -58 49 14 14 83 9
100 -8z"/>
<path d="M5379 528 c-9 -20 -17 -23 -70 -23 -54 0 -63 -3 -85 -28 -29 -34 -31
-80 -5 -106 17 -17 18 -21 5 -32 -31 -25 -36 -49 -18 -76 16 -25 16 -27 -1
-39 -22 -16 -23 -61 -1 -82 13 -13 36 -17 102 -17 82 0 87 1 110 28 31 36 31
81 1 111 -18 18 -40 25 -91 30 -55 6 -67 11 -64 24 3 11 12 16 27 14 83 -9
145 50 122 115 -13 35 -8 53 15 53 8 0 14 10 14 25 0 20 -5 25 -25 25 -17 0
-29 -8 -36 -22z m-51 -106 c3 -37 1 -42 -17 -42 -26 0 -37 39 -21 70 17 32 35
19 38 -28z m35 -211 c20 -20 -1 -41 -42 -41 -66 0 -88 18 -58 49 14 14 83 9
100 -8z"/>
<path d="M2775 501 c-41 -17 -78 -81 -47 -81 9 0 27 -3 40 -6 15 -5 22 -2 22
9 0 8 7 20 15 27 19 15 45 -3 45 -31 0 -18 -9 -22 -66 -34 -38 -7 -72 -37 -80
-71 -10 -38 18 -90 52 -98 28 -7 84 10 84 25 0 5 5 9 10 9 6 0 10 -7 10 -15 0
-10 11 -15 35 -15 l35 0 0 116 c0 114 0 116 -29 145 -31 30 -81 38 -126 20z
m75 -172 c0 -32 -19 -59 -40 -59 -15 0 -20 7 -20 28 0 32 16 52 42 52 12 0 18
-7 18 -21z"/>
<path d="M3267 503 c-4 -3 -7 -69 -7 -145 l0 -138 40 0 40 0 0 145 0 145 -33
0 c-19 0 -37 -3 -40 -7z"/>
<path d="M3407 503 c-4 -3 -7 -69 -7 -145 l0 -138 40 0 40 0 0 98 c0 105 11
139 43 126 15 -5 17 -21 17 -115 l0 -109 40 0 40 0 0 125 c0 112 -2 127 -20
145 -24 24 -67 26 -97 5 -19 -13 -22 -13 -27 0 -5 15 -57 21 -69 8z"/>
<path d="M4424 491 c-41 -25 -58 -76 -51 -151 6 -72 28 -107 78 -121 87 -26
149 33 149 141 0 123 -85 186 -176 131z m86 -60 c5 -11 10 -43 10 -71 0 -57
-13 -90 -35 -90 -22 0 -35 33 -35 90 0 57 13 90 35 90 8 0 19 -9 25 -19z"/>
<path d="M4978 493 c-80 -50 -75 -229 7 -267 18 -9 40 -16 49 -16 36 0 85 30
101 60 19 37 18 38 -21 46 -24 4 -31 1 -39 -18 -20 -47 -75 -26 -75 29 0 22 3
23 75 23 l75 0 0 30 c0 100 -94 161 -172 113z m89 -64 c12 -23 11 -24 -23 -27
-46 -4 -51 1 -30 33 20 30 36 28 53 -6z"/>
<path d="M5518 493 c-80 -50 -75 -229 7 -267 18 -9 40 -16 49 -16 36 0 85 30
101 60 19 37 18 38 -21 46 -24 4 -31 1 -39 -18 -20 -47 -75 -26 -75 29 0 22 3
23 75 23 l75 0 0 30 c0 100 -94 161 -172 113z m89 -64 c12 -23 11 -24 -23 -27
-46 -4 -51 1 -30 33 20 30 36 28 53 -6z"/>
<path d="M6524 491 c-41 -25 -58 -76 -51 -151 6 -72 28 -107 78 -121 87 -26
149 33 149 141 0 123 -85 186 -176 131z m86 -60 c5 -11 10 -43 10 -71 0 -57
-13 -90 -35 -90 -22 0 -35 33 -35 90 0 57 13 90 35 90 8 0 19 -9 25 -19z"/>
<path d="M6757 503 c-4 -3 -7 -69 -7 -145 l0 -138 40 0 40 0 0 75 c0 85 13
123 47 131 19 5 23 13 23 45 0 53 -38 50 -68 -6 -10 -18 -11 -17 -12 13 0 28
-3 32 -28 32 -16 0 -32 -3 -35 -7z"/>
<path d="M7285 501 c-41 -17 -78 -81 -47 -81 9 0 27 -3 40 -6 15 -5 22 -2 22
9 0 8 7 20 15 27 19 15 45 -3 45 -31 0 -18 -9 -22 -66 -34 -38 -7 -72 -37 -80
-71 -10 -38 18 -90 52 -98 28 -7 84 10 84 25 0 5 5 9 10 9 6 0 10 -7 10 -15 0
-10 11 -15 35 -15 l35 0 0 116 c0 114 0 116 -29 145 -31 30 -81 38 -126 20z
m75 -172 c0 -32 -19 -59 -40 -59 -15 0 -20 7 -20 28 0 32 16 52 42 52 12 0 18
-7 18 -21z"/>
<path d="M7968 493 c-80 -50 -75 -229 7 -267 18 -9 40 -16 49 -16 36 0 85 30
101 60 19 37 18 38 -21 46 -24 4 -31 1 -39 -18 -20 -47 -75 -26 -75 29 0 22 3
23 75 23 l75 0 0 30 c0 100 -94 161 -172 113z m89 -64 c12 -23 11 -24 -23 -27
-46 -4 -51 1 -30 33 20 30 36 28 53 -6z"/>
</g>
</svg>
